<mxfile host="app.diagrams.net" modified="2023-08-15T02:23:43.046Z" agent="Mozilla/5.0 (Windows NT 10.0; Win64; x64) AppleWebKit/537.36 (KHTML, like Gecko) Chrome/115.0.0.0 Safari/537.36 Edg/115.0.1901.200" etag="PNRrRlKrInre_-uKo4uJ" version="21.2.4" type="github">
  <diagram id="ugjUUu8F4O7WbgQhgJUw" name="Page-1">
    <mxGraphModel dx="1331" dy="774" grid="1" gridSize="10" guides="1" tooltips="1" connect="1" arrows="1" fold="1" page="1" pageScale="1" pageWidth="850" pageHeight="1100" math="0" shadow="0">
      <root>
        <mxCell id="0" />
        <mxCell id="1" parent="0" />
        <mxCell id="M61k8DcqYupUROe8yYo3-151" value="" style="group" parent="1" vertex="1" connectable="0">
          <mxGeometry x="40" y="340" width="960" height="730" as="geometry" />
        </mxCell>
        <mxCell id="M61k8DcqYupUROe8yYo3-127" value="" style="verticalLabelPosition=bottom;verticalAlign=top;html=1;shape=mxgraph.basic.patternFillRect;fillStyle=diag;step=5;fillStrokeWidth=0.2;fillStrokeColor=#dddddd;rounded=0;shadow=0;glass=0;sketch=0;strokeWidth=1;fontSize=18;fillColor=#dae8fc;strokeColor=#6c8ebf;" parent="M61k8DcqYupUROe8yYo3-151" vertex="1">
          <mxGeometry x="40" y="120" width="440" height="568" as="geometry" />
        </mxCell>
        <mxCell id="M61k8DcqYupUROe8yYo3-142" value="" style="rounded=0;arcSize=10;dashed=0;fillColor=none;gradientColor=none;strokeWidth=2;shadow=0;glass=0;labelBackgroundColor=none;sketch=0;fontSize=18;" parent="M61k8DcqYupUROe8yYo3-151" vertex="1">
          <mxGeometry y="40" width="960" height="690" as="geometry" />
        </mxCell>
        <mxCell id="M61k8DcqYupUROe8yYo3-129" value="" style="verticalLabelPosition=bottom;verticalAlign=top;html=1;shape=mxgraph.basic.patternFillRect;fillStyle=diag;step=5;fillStrokeWidth=0.2;fillStrokeColor=#dddddd;rounded=0;shadow=0;glass=0;sketch=0;strokeWidth=1;fontSize=18;fillColor=#d5e8d4;strokeColor=#82b366;" parent="M61k8DcqYupUROe8yYo3-151" vertex="1">
          <mxGeometry x="480" y="120.00000000000006" width="440" height="568" as="geometry" />
        </mxCell>
        <mxCell id="M61k8DcqYupUROe8yYo3-15" value="Health Goals User" style="whiteSpace=wrap;html=1;strokeWidth=1;perimeterSpacing=0;rounded=0;glass=0;shadow=0;gradientColor=none;" parent="M61k8DcqYupUROe8yYo3-151" vertex="1">
          <mxGeometry x="213.53" y="168.68" width="141.72" height="40.59" as="geometry" />
        </mxCell>
        <mxCell id="M61k8DcqYupUROe8yYo3-25" value="Demographics" style="whiteSpace=wrap;html=1;" parent="M61k8DcqYupUROe8yYo3-151" vertex="1">
          <mxGeometry x="130.86" y="258.46000000000004" width="141.72" height="41.54" as="geometry" />
        </mxCell>
        <mxCell id="M61k8DcqYupUROe8yYo3-105" style="edgeStyle=orthogonalEdgeStyle;rounded=0;orthogonalLoop=1;jettySize=auto;html=1;entryX=0.5;entryY=0;entryDx=0;entryDy=0;fontSize=18;startArrow=none;startFill=0;" parent="M61k8DcqYupUROe8yYo3-151" source="M61k8DcqYupUROe8yYo3-15" target="M61k8DcqYupUROe8yYo3-25" edge="1">
          <mxGeometry relative="1" as="geometry" />
        </mxCell>
        <mxCell id="M61k8DcqYupUROe8yYo3-30" value="App Usage Behavior" style="whiteSpace=wrap;html=1;" parent="M61k8DcqYupUROe8yYo3-151" vertex="1">
          <mxGeometry x="296.2" y="258.46000000000004" width="141.72" height="41.54" as="geometry" />
        </mxCell>
        <mxCell id="M61k8DcqYupUROe8yYo3-106" style="edgeStyle=orthogonalEdgeStyle;rounded=0;orthogonalLoop=1;jettySize=auto;html=1;entryX=0.5;entryY=0;entryDx=0;entryDy=0;fontSize=18;startArrow=none;startFill=0;" parent="M61k8DcqYupUROe8yYo3-151" source="M61k8DcqYupUROe8yYo3-15" target="M61k8DcqYupUROe8yYo3-30" edge="1">
          <mxGeometry relative="1" as="geometry" />
        </mxCell>
        <mxCell id="M61k8DcqYupUROe8yYo3-74" style="edgeStyle=orthogonalEdgeStyle;rounded=0;orthogonalLoop=1;jettySize=auto;html=1;entryX=1;entryY=0.5;entryDx=0;entryDy=0;" parent="M61k8DcqYupUROe8yYo3-151" source="M61k8DcqYupUROe8yYo3-64" target="M61k8DcqYupUROe8yYo3-15" edge="1">
          <mxGeometry relative="1" as="geometry" />
        </mxCell>
        <mxCell id="M61k8DcqYupUROe8yYo3-64" value="Pulse Data" style="sketch=0;aspect=fixed;html=1;points=[];align=center;image;fontSize=14;image=img/lib/mscae/Database_General.svg;labelBackgroundColor=none;fontStyle=1;labelPosition=center;verticalLabelPosition=top;verticalAlign=bottom;" parent="M61k8DcqYupUROe8yYo3-151" vertex="1">
          <mxGeometry x="449.69" y="150" width="59.23873303167421" height="77.94570135746606" as="geometry" />
        </mxCell>
        <mxCell id="M61k8DcqYupUROe8yYo3-107" value="K-means Clustering" style="whiteSpace=wrap;html=1;" parent="M61k8DcqYupUROe8yYo3-151" vertex="1">
          <mxGeometry x="213.53" y="370" width="141.72" height="37.24" as="geometry" />
        </mxCell>
        <mxCell id="M61k8DcqYupUROe8yYo3-109" style="edgeStyle=orthogonalEdgeStyle;rounded=0;orthogonalLoop=1;jettySize=auto;html=1;entryX=0.5;entryY=0;entryDx=0;entryDy=0;fontSize=18;startArrow=none;startFill=0;" parent="M61k8DcqYupUROe8yYo3-151" source="M61k8DcqYupUROe8yYo3-25" target="M61k8DcqYupUROe8yYo3-107" edge="1">
          <mxGeometry relative="1" as="geometry" />
        </mxCell>
        <mxCell id="M61k8DcqYupUROe8yYo3-110" style="edgeStyle=orthogonalEdgeStyle;rounded=0;orthogonalLoop=1;jettySize=auto;html=1;entryX=0.5;entryY=0;entryDx=0;entryDy=0;fontSize=18;startArrow=none;startFill=0;" parent="M61k8DcqYupUROe8yYo3-151" source="M61k8DcqYupUROe8yYo3-30" target="M61k8DcqYupUROe8yYo3-107" edge="1">
          <mxGeometry relative="1" as="geometry" />
        </mxCell>
        <mxCell id="M61k8DcqYupUROe8yYo3-116" style="edgeStyle=orthogonalEdgeStyle;rounded=0;orthogonalLoop=1;jettySize=auto;html=1;entryX=0;entryY=0.5;entryDx=0;entryDy=0;fontSize=18;startArrow=none;startFill=0;" parent="M61k8DcqYupUROe8yYo3-151" source="M61k8DcqYupUROe8yYo3-115" target="M61k8DcqYupUROe8yYo3-15" edge="1">
          <mxGeometry relative="1" as="geometry" />
        </mxCell>
        <mxCell id="M61k8DcqYupUROe8yYo3-115" value="DPAS data" style="sketch=0;aspect=fixed;html=1;points=[];align=center;image;fontSize=14;image=img/lib/mscae/Database_General.svg;labelBackgroundColor=none;fontStyle=1;labelPosition=center;verticalLabelPosition=top;verticalAlign=bottom;" parent="M61k8DcqYupUROe8yYo3-151" vertex="1">
          <mxGeometry x="60" y="150" width="59.23873303167421" height="77.94570135746606" as="geometry" />
        </mxCell>
        <mxCell id="M61k8DcqYupUROe8yYo3-117" value="Propensity Modelling" style="whiteSpace=wrap;html=1;" parent="M61k8DcqYupUROe8yYo3-151" vertex="1">
          <mxGeometry x="213.53" y="460" width="141.72" height="39.91" as="geometry" />
        </mxCell>
        <mxCell id="M61k8DcqYupUROe8yYo3-118" value="" style="edgeStyle=orthogonalEdgeStyle;rounded=0;orthogonalLoop=1;jettySize=auto;html=1;fontSize=18;startArrow=none;startFill=0;" parent="M61k8DcqYupUROe8yYo3-151" source="M61k8DcqYupUROe8yYo3-107" target="M61k8DcqYupUROe8yYo3-117" edge="1">
          <mxGeometry relative="1" as="geometry" />
        </mxCell>
        <mxCell id="M61k8DcqYupUROe8yYo3-121" value="Digital Product Recomendation" style="whiteSpace=wrap;html=1;" parent="M61k8DcqYupUROe8yYo3-151" vertex="1">
          <mxGeometry x="213.53" y="540" width="141.72" height="40" as="geometry" />
        </mxCell>
        <mxCell id="M61k8DcqYupUROe8yYo3-148" style="edgeStyle=orthogonalEdgeStyle;rounded=0;orthogonalLoop=1;jettySize=auto;html=1;entryX=0.5;entryY=0;entryDx=0;entryDy=0;labelBackgroundColor=none;fontSize=18;startArrow=none;startFill=0;" parent="M61k8DcqYupUROe8yYo3-151" source="M61k8DcqYupUROe8yYo3-117" target="M61k8DcqYupUROe8yYo3-121" edge="1">
          <mxGeometry relative="1" as="geometry" />
        </mxCell>
        <mxCell id="M61k8DcqYupUROe8yYo3-72" value="User Segmentation" style="whiteSpace=wrap;html=1;strokeWidth=1;perimeterSpacing=0;rounded=0;glass=0;shadow=0;gradientColor=none;" parent="M61k8DcqYupUROe8yYo3-151" vertex="1">
          <mxGeometry x="560" y="170.65000000000003" width="141.72" height="36.65" as="geometry" />
        </mxCell>
        <mxCell id="M61k8DcqYupUROe8yYo3-137" style="edgeStyle=orthogonalEdgeStyle;rounded=0;orthogonalLoop=1;jettySize=auto;html=1;entryX=0;entryY=0.5;entryDx=0;entryDy=0;fontSize=18;startArrow=none;startFill=0;" parent="M61k8DcqYupUROe8yYo3-151" source="M61k8DcqYupUROe8yYo3-64" target="M61k8DcqYupUROe8yYo3-72" edge="1">
          <mxGeometry relative="1" as="geometry" />
        </mxCell>
        <mxCell id="M61k8DcqYupUROe8yYo3-75" value="Customer" style="whiteSpace=wrap;html=1;strokeWidth=1;perimeterSpacing=0;rounded=0;glass=0;shadow=0;gradientColor=none;" parent="M61k8DcqYupUROe8yYo3-151" vertex="1">
          <mxGeometry x="768.76" y="258.46000000000004" width="141.72" height="41.54" as="geometry" />
        </mxCell>
        <mxCell id="M61k8DcqYupUROe8yYo3-77" style="edgeStyle=orthogonalEdgeStyle;rounded=0;orthogonalLoop=1;jettySize=auto;html=1;entryX=0.5;entryY=0;entryDx=0;entryDy=0;" parent="M61k8DcqYupUROe8yYo3-151" source="M61k8DcqYupUROe8yYo3-76" target="M61k8DcqYupUROe8yYo3-75" edge="1">
          <mxGeometry relative="1" as="geometry" />
        </mxCell>
        <mxCell id="M61k8DcqYupUROe8yYo3-76" value="LAS Data" style="sketch=0;aspect=fixed;html=1;points=[];align=center;image;fontSize=14;image=img/lib/mscae/Database_General.svg;labelBackgroundColor=none;fontStyle=1;labelPosition=center;verticalLabelPosition=top;verticalAlign=bottom;" parent="M61k8DcqYupUROe8yYo3-151" vertex="1">
          <mxGeometry x="810.0005200000002" y="150" width="59.23873303167421" height="77.94570135746606" as="geometry" />
        </mxCell>
        <mxCell id="M61k8DcqYupUROe8yYo3-139" value="" style="edgeStyle=orthogonalEdgeStyle;rounded=0;orthogonalLoop=1;jettySize=auto;html=1;entryX=0;entryY=0.5;entryDx=0;entryDy=0;fontSize=18;startArrow=classic;startFill=1;labelBackgroundColor=none;" parent="M61k8DcqYupUROe8yYo3-151" source="M61k8DcqYupUROe8yYo3-84" target="M61k8DcqYupUROe8yYo3-75" edge="1">
          <mxGeometry x="0.1453" y="-31" relative="1" as="geometry">
            <mxPoint as="offset" />
          </mxGeometry>
        </mxCell>
        <mxCell id="M61k8DcqYupUROe8yYo3-84" value="Hot Leads" style="whiteSpace=wrap;html=1;strokeWidth=1;perimeterSpacing=0;rounded=0;glass=0;shadow=0;gradientColor=none;" parent="M61k8DcqYupUROe8yYo3-151" vertex="1">
          <mxGeometry x="560" y="258.46000000000004" width="141.72" height="41.54" as="geometry" />
        </mxCell>
        <mxCell id="M61k8DcqYupUROe8yYo3-138" style="edgeStyle=orthogonalEdgeStyle;rounded=0;orthogonalLoop=1;jettySize=auto;html=1;entryX=0.5;entryY=0;entryDx=0;entryDy=0;fontSize=18;startArrow=none;startFill=0;" parent="M61k8DcqYupUROe8yYo3-151" source="M61k8DcqYupUROe8yYo3-72" target="M61k8DcqYupUROe8yYo3-84" edge="1">
          <mxGeometry relative="1" as="geometry" />
        </mxCell>
        <mxCell id="M61k8DcqYupUROe8yYo3-101" value="KNN" style="edgeStyle=orthogonalEdgeStyle;rounded=0;orthogonalLoop=1;jettySize=auto;html=1;entryX=0.5;entryY=0;entryDx=0;entryDy=0;fontSize=18;startArrow=classic;startFill=1;exitX=0.5;exitY=1;exitDx=0;exitDy=0;labelBackgroundColor=none;fontStyle=1" parent="M61k8DcqYupUROe8yYo3-151" source="M61k8DcqYupUROe8yYo3-75" target="M61k8DcqYupUROe8yYo3-132" edge="1">
          <mxGeometry x="0.5989" y="-25" relative="1" as="geometry">
            <mxPoint x="778.3699999999999" y="376.55999999999995" as="targetPoint" />
            <mxPoint x="25" y="-25" as="offset" />
          </mxGeometry>
        </mxCell>
        <mxCell id="M61k8DcqYupUROe8yYo3-96" style="edgeStyle=orthogonalEdgeStyle;rounded=0;orthogonalLoop=1;jettySize=auto;html=1;entryX=0.5;entryY=0;entryDx=0;entryDy=0;fontSize=14;startArrow=classic;startFill=1;" parent="M61k8DcqYupUROe8yYo3-151" source="M61k8DcqYupUROe8yYo3-84" target="M61k8DcqYupUROe8yYo3-132" edge="1">
          <mxGeometry relative="1" as="geometry">
            <mxPoint x="778.3699999999999" y="376.55999999999995" as="targetPoint" />
          </mxGeometry>
        </mxCell>
        <mxCell id="M61k8DcqYupUROe8yYo3-102" value="Lead Distribution" style="whiteSpace=wrap;html=1;strokeWidth=1;perimeterSpacing=0;rounded=0;glass=0;shadow=0;gradientColor=none;" parent="M61k8DcqYupUROe8yYo3-151" vertex="1">
          <mxGeometry x="664.14" y="540" width="141.72" height="40" as="geometry" />
        </mxCell>
        <mxCell id="M61k8DcqYupUROe8yYo3-103" style="edgeStyle=orthogonalEdgeStyle;rounded=0;orthogonalLoop=1;jettySize=auto;html=1;entryX=0.5;entryY=0;entryDx=0;entryDy=0;fontSize=18;exitX=0.5;exitY=1;exitDx=0;exitDy=0;" parent="M61k8DcqYupUROe8yYo3-151" source="M61k8DcqYupUROe8yYo3-132" target="M61k8DcqYupUROe8yYo3-102" edge="1">
          <mxGeometry relative="1" as="geometry">
            <mxPoint x="778.3076923076924" y="506.4699999999998" as="sourcePoint" />
          </mxGeometry>
        </mxCell>
        <mxCell id="M61k8DcqYupUROe8yYo3-112" value="Traditional Policy Upselling" style="whiteSpace=wrap;html=1;strokeWidth=1;perimeterSpacing=0;rounded=0;glass=0;shadow=0;gradientColor=none;" parent="M61k8DcqYupUROe8yYo3-151" vertex="1">
          <mxGeometry x="664.14" y="617.76" width="141.72" height="42.24" as="geometry" />
        </mxCell>
        <mxCell id="M61k8DcqYupUROe8yYo3-113" style="edgeStyle=orthogonalEdgeStyle;rounded=0;orthogonalLoop=1;jettySize=auto;html=1;entryX=0.5;entryY=0;entryDx=0;entryDy=0;fontSize=18;startArrow=none;startFill=0;" parent="M61k8DcqYupUROe8yYo3-151" source="M61k8DcqYupUROe8yYo3-102" target="M61k8DcqYupUROe8yYo3-112" edge="1">
          <mxGeometry relative="1" as="geometry" />
        </mxCell>
        <mxCell id="M61k8DcqYupUROe8yYo3-131" value="" style="group;fillColor=#f0a30a;fontColor=#000000;strokeColor=#BD7000;" parent="M61k8DcqYupUROe8yYo3-151" vertex="1" connectable="0">
          <mxGeometry x="580" y="370" width="310" height="129.91" as="geometry" />
        </mxCell>
        <mxCell id="M61k8DcqYupUROe8yYo3-132" value="Agent Scoring&lt;br&gt;&lt;br&gt;&lt;br&gt;&lt;br&gt;&lt;br&gt;&lt;br&gt;" style="whiteSpace=wrap;html=1;" parent="M61k8DcqYupUROe8yYo3-131" vertex="1">
          <mxGeometry width="310.00000000000006" height="129.91" as="geometry" />
        </mxCell>
        <mxCell id="M61k8DcqYupUROe8yYo3-133" value="PruForce Agent&amp;nbsp;&lt;br&gt;&amp;nbsp;App Usage" style="whiteSpace=wrap;html=1;" parent="M61k8DcqYupUROe8yYo3-131" vertex="1">
          <mxGeometry x="166.07142857142864" y="47.23999999999999" width="132.85714285714283" height="70.85999999999999" as="geometry" />
        </mxCell>
        <mxCell id="M61k8DcqYupUROe8yYo3-134" value="Agent Historical Performance" style="whiteSpace=wrap;html=1;" parent="M61k8DcqYupUROe8yYo3-131" vertex="1">
          <mxGeometry x="11.07142857142862" y="47.23999999999999" width="132.85714285714283" height="70.85999999999999" as="geometry" />
        </mxCell>
        <mxCell id="M61k8DcqYupUROe8yYo3-7" value="PVA&#39;s UDP" style="sketch=0;aspect=fixed;html=1;points=[];align=center;image;fontSize=14;image=img/lib/mscae/Data_Lake.svg;labelPosition=center;verticalLabelPosition=top;verticalAlign=bottom;fontStyle=1" parent="M61k8DcqYupUROe8yYo3-151" vertex="1">
          <mxGeometry x="449.69" width="59.28" height="78" as="geometry" />
        </mxCell>
        <mxCell id="M61k8DcqYupUROe8yYo3-149" value="Digital Product Upselling" style="whiteSpace=wrap;html=1;" parent="M61k8DcqYupUROe8yYo3-151" vertex="1">
          <mxGeometry x="213.52999999999997" y="620" width="141.72" height="40" as="geometry" />
        </mxCell>
        <mxCell id="M61k8DcqYupUROe8yYo3-150" value="EDM" style="edgeStyle=orthogonalEdgeStyle;rounded=0;orthogonalLoop=1;jettySize=auto;html=1;entryX=0.5;entryY=0;entryDx=0;entryDy=0;labelBackgroundColor=none;fontSize=18;startArrow=none;startFill=0;" parent="M61k8DcqYupUROe8yYo3-151" source="M61k8DcqYupUROe8yYo3-121" target="M61k8DcqYupUROe8yYo3-149" edge="1">
          <mxGeometry x="0.0017" y="26" relative="1" as="geometry">
            <mxPoint as="offset" />
          </mxGeometry>
        </mxCell>
      </root>
    </mxGraphModel>
  </diagram>
</mxfile>
